<svg width="0" height="0" class="hidden">
  <symbol xmlns="http://www.w3.org/2000/svg" fill="#000000" viewBox="0 0 256 256" id="facebook-logo-fill">
    <rect width="256" height="256" fill="none"></rect>
    <path d="M232,128a104.3,104.3,0,0,1-91.5,103.3,4.1,4.1,0,0,1-4.5-4V152h24a8,8,0,0,0,8-8.5,8.2,8.2,0,0,0-8.3-7.5H136V112a16,16,0,0,1,16-16h16a8,8,0,0,0,8-8.5,8.2,8.2,0,0,0-8.3-7.5H152a32,32,0,0,0-32,32v24H96a8,8,0,0,0-8,8.5,8.2,8.2,0,0,0,8.3,7.5H120v75.3a4,4,0,0,1-4.4,4C62.8,224.9,22,179,24.1,124.1A104,104,0,0,1,232,128Z"></path>
  </symbol>
  <symbol xmlns="http://www.w3.org/2000/svg" fill="#000000" viewBox="0 0 256 256" id="instagram-logo-fill">
    <rect width="256" height="256" fill="none"></rect>
    <circle cx="128" cy="128" r="32"></circle>
    <path d="M172,28H84A56,56,0,0,0,28,84v88a56,56,0,0,0,56,56h88a56,56,0,0,0,56-56V84A56,56,0,0,0,172,28ZM128,176a48,48,0,1,1,48-48A48,48,0,0,1,128,176Zm52-88a12,12,0,1,1,12-12A12,12,0,0,1,180,88Z"></path>
  </symbol>
  <symbol xmlns="http://www.w3.org/2000/svg" fill="#000000" viewBox="0 0 256 256" id="linkedin-logo-fill">
    <rect width="256" height="256" fill="none"></rect>
    <path d="M212,28H44A16,16,0,0,0,28,44V212a16,16,0,0,0,16,16H212a16,16,0,0,0,16-16V44A16,16,0,0,0,212,28ZM96,176a8,8,0,0,1-16,0V112a8,8,0,0,1,16,0ZM88,92a12,12,0,1,1,12-12A12,12,0,0,1,88,92Zm96,84a8,8,0,0,1-16,0V140a20,20,0,0,0-40,0v36a8,8,0,0,1-16,0V112a8,8,0,0,1,15.8-1.8A36,36,0,0,1,184,140Z"></path>
  </symbol>
  <symbol xmlns="http://www.w3.org/2000/svg" fill="#000000" viewBox="0 0 256 256" id="twitter-logo-fill">
    <rect width="256" height="256" fill="none"></rect>
    <path d="M245.7,77.7l-30.2,30.1C209.5,177.7,150.5,232,80,232c-14.5,0-26.5-2.3-35.6-6.8-7.3-3.7-10.3-7.6-11.1-8.8a8,8,0,0,1,3.9-11.9c.2-.1,23.8-9.1,39.1-26.4a108.6,108.6,0,0,1-24.7-24.4c-13.7-18.6-28.2-50.9-19.5-99.1a8.1,8.1,0,0,1,5.5-6.2,8,8,0,0,1,8.1,1.9c.3.4,33.6,33.2,74.3,43.8V88a48.3,48.3,0,0,1,48.6-48,48.2,48.2,0,0,1,41,24H240a8,8,0,0,1,7.4,4.9A8.4,8.4,0,0,1,245.7,77.7Z"></path>
  </symbol>
  <symbol xmlns="http://www.w3.org/2000/svg" fill="#000000" viewBox="0 0 256 256" id="youtube-logo-fill">
    <rect width="256" height="256" fill="none"></rect>
    <path d="M234.3,69.8a23.5,23.5,0,0,0-14.5-16.3C185.6,40.3,131,40.4,128,40.4s-57.6-.1-91.8,13.1A23.5,23.5,0,0,0,21.7,69.8C19.1,79.7,16,97.9,16,128s3.1,48.3,5.7,58.2a23.5,23.5,0,0,0,14.5,16.3c32.8,12.7,84.2,13.1,91.1,13.1h1.4c6.9,0,58.3-.4,91.1-13.1a23.5,23.5,0,0,0,14.5-16.3c2.6-9.9,5.7-28.1,5.7-58.2S236.9,79.7,234.3,69.8Zm-72.1,61.5-48,32a3.6,3.6,0,0,1-2.2.7,4.5,4.5,0,0,1-1.9-.5A3.9,3.9,0,0,1,108,160V96a3.9,3.9,0,0,1,2.1-3.5,4,4,0,0,1,4.1.2l48,32a3.9,3.9,0,0,1,0,6.6Z"></path>
  </symbol>
</svg>